<?xml version="1.0" standalone="no"?>
<!DOCTYPE svg PUBLIC "-//W3C//DTD SVG 20010904//EN"
 "http://www.w3.org/TR/2001/REC-SVG-20010904/DTD/svg10.dtd">
<svg version="1.0" xmlns="http://www.w3.org/2000/svg"
 width="360.000000pt" height="360.000000pt" viewBox="0 0 360.000000 360.000000"
 preserveAspectRatio="xMidYMid meet">

<g transform="translate(0.000000,360.000000) scale(0.100000,-0.100000)"
fill="#000000" stroke="none">
<path d="M1987 3588 c-16 -6 -30 -20 -35 -36 -9 -35 -9 -589 0 -623 11 -37 26
-41 161 -47 l117 -4 0 -34 0 -34 -249 0 -249 0 -4 195 c-3 171 -5 197 -21 212
-17 17 -51 18 -518 18 l-501 0 -19 -24 c-17 -21 -19 -41 -19 -211 l0 -187
-101 -7 c-55 -3 -115 -12 -132 -20 -40 -16 -112 -96 -126 -139 -14 -45 -48
-249 -145 -887 -165 -1082 -148 -928 -144 -1272 3 -288 4 -305 24 -343 28 -51
68 -91 119 -119 l40 -21 1605 0 c883 0 1622 4 1642 8 50 10 132 86 153 140 14
38 16 87 13 388 l-4 344 -102 655 c-185 1180 -175 1131 -241 1198 -56 56 -73
60 -264 68 l-177 7 0 32 0 32 120 6 c66 3 128 11 139 17 20 10 21 22 23 331
l3 320 -26 25 -25 24 -515 -1 c-317 0 -525 -4 -542 -11z m963 -348 l0 -220
-430 0 -430 0 0 220 0 220 430 0 430 0 0 -220z m-1370 -717 l0 -573 -395 0
-395 0 0 568 c0 313 2 571 4 573 2 2 180 4 395 4 l391 0 0 -572z m1090 322 l0
-35 -145 0 -145 0 0 35 0 35 145 0 145 0 0 -35z m-2022 -589 c2 -405 3 -410
24 -433 l21 -23 496 0 c494 0 495 0 518 22 l23 21 0 415 0 415 695 -5 695 -5
25 -23 c13 -13 29 -37 34 -54 6 -17 37 -209 70 -426 126 -824 191 -1262 191
-1281 0 -19 -23 -19 -1640 -19 -1523 0 -1640 1 -1640 17 0 16 133 903 211
1408 46 302 52 326 79 350 23 21 83 34 150 31 l45 -1 3 -409z m2819 -1787 c-7
-268 -10 -283 -59 -311 -18 -10 -355 -13 -1594 -16 -1435 -4 -1574 -3 -1602
12 -64 33 -67 44 -71 318 l-3 248 1668 0 1667 0 -6 -251z"/>
<path d="M938 2810 l-3 -70 253 0 252 0 0 70 0 70 -249 0 -249 0 -4 -70z"/>
<path d="M940 2523 l0 -73 250 0 250 0 0 73 0 73 -250 0 -250 -1 0 -72z"/>
<path d="M940 2235 l0 -75 250 0 250 0 0 75 0 75 -250 0 -250 0 0 -75z"/>
<path d="M2068 2511 c-49 -10 -84 -35 -105 -74 -14 -26 -17 -62 -17 -197 -1
-193 8 -224 81 -270 l43 -28 463 2 c462 1 462 1 498 24 20 12 44 38 53 57 16
32 16 44 1 158 -33 259 -41 279 -116 317 -36 19 -59 20 -451 19 -227 -1 -429
-5 -450 -8z m841 -150 c9 -14 24 -102 37 -215 l7 -56 -432 0 -431 0 0 139 0
140 38 4 c20 3 203 4 405 3 303 -1 369 -3 376 -15z"/>
<path d="M1973 1771 c-21 -18 -23 -28 -23 -119 0 -128 6 -136 128 -141 68 -2
93 0 119 14 l33 18 0 108 c0 137 -2 139 -140 139 -78 -1 -99 -4 -117 -19z"/>
<path d="M2407 1775 c-32 -31 -33 -219 -1 -245 20 -18 164 -25 207 -11 44 15
50 31 50 143 0 123 -5 128 -139 128 -77 0 -106 -4 -117 -15z"/>
<path d="M2836 1768 c-22 -32 -23 -210 -1 -232 22 -22 77 -30 159 -23 50 5 74
11 83 24 9 11 13 52 13 118 0 133 -2 135 -138 135 -93 0 -102 -2 -116 -22z"/>
<path d="M1974 1339 c-16 -18 -19 -37 -19 -120 0 -132 2 -134 141 -134 136 0
137 1 132 143 -4 131 -5 132 -138 132 -86 0 -99 -2 -116 -21z"/>
<path d="M2410 1342 c-21 -17 -23 -27 -24 -119 -1 -141 3 -146 142 -141 132 4
132 4 132 144 0 130 -4 134 -136 134 -74 0 -96 -4 -114 -18z"/>
<path d="M2843 1345 c-26 -19 -40 -140 -23 -204 14 -54 39 -64 151 -59 118 4
119 5 119 139 0 100 -2 109 -22 123 -31 22 -194 22 -225 1z"/>
<path d="M1755 565 c-102 -36 -128 -160 -49 -236 32 -31 40 -34 94 -34 55 0
62 3 96 37 107 106 -1 284 -141 233z"/>
</g>
</svg>
